<?xml version="1.0" encoding="UTF-8"?>
<svg width="681px" height="618px" viewBox="0 0 681 618" version="1.1" xmlns="http://www.w3.org/2000/svg" xmlns:xlink="http://www.w3.org/1999/xlink">
    <title>Shape@1x</title>
    <g id="Page-1" stroke="none" stroke-width="1" fill="none" fill-rule="evenodd">
        <g id="Prilozhenie" transform="translate(0.000000, -0.050781)" fill="#E6249B" fill-rule="nonzero">
            <g id="Clipped" transform="translate(0.000000, -0.000000)">
                <path d="M596.671875,359.21875 L596.671875,486.785156 C596.671875,557.734375 533.691406,617.667969 459.203125,617.667969 L422.667969,617.667969 C403.082031,617.667969 257.25,617.667969 237.78125,617.667969 L210.007812,617.667969 C136.953125,617.667969 77.496094,558.9375 77.496094,486.785156 L77.496094,359.21875 L35.429688,359.21875 C21.078125,359.21875 8.1875,350.613281 2.699219,337.488281 C-2.773438,324.289062 0.28125,309.148437 10.371094,299.0625 L290.039062,20.65625 C303.402344,7.339843 321.207031,-5.68434189e-14 340.097656,-5.68434189e-14 C359.007812,-5.68434189e-14 376.8125,7.339843 390.175781,20.65625 C436.460938,66.734375 471.175781,101.292969 494.320312,124.332031 C496,126.003906 500.648438,130.628906 501.644531,131.625 C502.308594,132.285156 502.640625,114.125 502.640625,104.335937 C504.367188,80.007812 524.472656,60.800781 549.367188,60.800781 L549.648438,60.800781 C575.636719,60.800781 596.671875,81.738281 596.671875,107.59375 L596.671875,218.410156 C596.671875,220.992187 596.316406,223.238281 595.917969,225.53125 L669.84375,299.0625 C679.976562,309.148437 682.988281,324.289062 677.5,337.488281 C672.027344,350.613281 659.121094,359.21875 644.785156,359.21875 L596.671875,359.21875 Z M297.070312,332.953125 C317.46875,332.953125 333.449219,310.589843 333.449219,282.042969 C333.449219,253.507812 317.472656,231.15625 297.070312,231.15625 C276.675781,231.15625 260.703125,253.507812 260.703125,282.042969 C260.703125,310.589843 276.675781,332.953125 297.070312,332.953125 Z M209.203125,363.929687 C216.8125,380.449219 230.515625,391.125 244.121094,391.125 C247.664062,391.125 251.050781,390.390625 254.214844,388.929687 C269.660156,381.75 274.140625,359.535156 264.40625,338.359375 C256.796875,321.824219 243.09375,311.140625 229.492188,311.140625 C225.953125,311.140625 222.566406,311.875 219.417969,313.328125 C203.964844,320.503906 199.472656,342.71875 209.203125,363.929687 Z M383.140625,332.953125 C403.53125,332.953125 419.507812,310.589843 419.507812,282.042969 C419.507812,253.507812 403.53125,231.15625 383.140625,231.15625 C362.742188,231.15625 346.761719,253.507812 346.761719,282.042969 C346.761719,310.589843 362.742188,332.953125 383.140625,332.953125 Z M415.832031,338.351562 C406.070312,359.519531 410.542969,381.734375 426.042969,388.941406 C429.179688,390.390625 432.566406,391.125 436.105469,391.125 C449.707031,391.125 463.40625,380.449219 471.015625,363.921875 C480.746094,342.734375 476.257812,320.515625 460.804688,313.335937 C457.660156,311.878906 454.269531,311.140625 450.71875,311.140625 C437.136719,311.140625 423.441406,321.824219 415.832031,338.351562 Z M259.242188,413.5625 C248.488281,430.636719 241.898438,441.761719 241.898438,454.550781 C241.898438,477.859375 258.769531,492.921875 284.875,492.921875 L285.457031,492.921875 C295.042969,492.921875 301.902344,492.378906 316.300781,484.859375 C316.382812,484.816406 316.496094,484.753906 316.578125,484.710937 C316.6875,484.648437 328.332031,478.203125 339.421875,478.902343 C339.875,478.933593 340.335938,478.933593 340.796875,478.902343 C351.894531,478.199219 363.53125,484.648437 363.605469,484.691406 C363.710938,484.746093 363.8125,484.804687 363.917969,484.859375 C378.316406,492.378906 385.175781,492.921875 394.761719,492.921875 L395.34375,492.921875 C421.449219,492.921875 438.320312,477.859375 438.320312,454.550781 C438.320312,441.761719 431.730469,430.636719 420.976562,413.5625 C419.453125,411.035156 399.46875,378.125 381.304688,361.679687 C366.042969,347.894531 342.722656,347.496093 340.105469,347.496093 C337.5,347.496093 314.175781,347.894531 298.90625,361.6875 C280.75,378.125 260.765625,411.035156 259.242188,413.5625 Z" id="Shape"></path>
            </g>
        </g>
    </g>
</svg>