<svg xmlns="http://www.w3.org/2000/svg" xmlns:xlink="http://www.w3.org/1999/xlink" width="1080" zoomAndPan="magnify" viewBox="0 0 810 1439.999935" height="1920" preserveAspectRatio="xMidYMid meet" version="1.0"><defs><clipPath id="id1"><path d="M 179 678 L 638 678 L 638 997.191406 L 179 997.191406 Z M 179 678 " clip-rule="nonzero"/></clipPath><clipPath id="id2"><path d="M 569 620 L 697.007812 620 L 697.007812 807 L 569 807 Z M 569 620 " clip-rule="nonzero"/></clipPath></defs><g clip-path="url(#id1)"><path fill="rgb(55.288696%, 35.289001%, 12.159729%)" d="M 517.410156 756.421875 C 507.875 711.144531 467.898438 678.753906 421.628906 678.753906 L 395.679688 678.753906 C 349.410156 678.753906 309.46875 711.144531 299.898438 756.421875 C 285.433594 824.851562 225.984375 847.671875 226.132812 847.597656 C 197.898438 860.113281 179.714844 888.125 179.714844 919.007812 C 179.714844 962.148438 214.71875 997.15625 257.863281 997.15625 C 309.25 997.15625 351.542969 984.125 351.433594 984.160156 C 414.820312 966.492188 467.605469 984.601562 467.496094 984.601562 C 518.402344 998.773438 561.324219 997.15625 559.445312 997.15625 C 602.625 997.15625 637.59375 962.148438 637.59375 919.007812 C 637.59375 888.125 619.410156 860.113281 591.175781 847.597656 C 553.410156 830.777344 525.949219 796.875 517.410156 756.421875 " fill-opacity="1" fill-rule="nonzero"/></g><path fill="rgb(55.288696%, 35.289001%, 12.159729%)" d="M 227.234375 580.179688 C 214.277344 517.382812 237.542969 459.515625 279.136719 450.941406 C 320.769531 442.363281 365.015625 486.316406 377.9375 549.113281 C 390.894531 611.945312 367.628906 669.808594 326.035156 678.386719 C 284.402344 686.960938 240.15625 642.976562 227.234375 580.179688 " fill-opacity="1" fill-rule="nonzero"/><path fill="rgb(55.288696%, 35.289001%, 12.159729%)" d="M 123.210938 726.128906 C 112.71875 675.367188 131.53125 628.582031 165.171875 621.664062 C 198.816406 614.742188 234.5625 650.265625 245.015625 701.023438 C 255.46875 751.785156 236.695312 798.570312 203.050781 805.527344 C 169.40625 812.445312 133.664062 776.886719 123.210938 726.128906 " fill-opacity="1" fill-rule="nonzero"/><path fill="rgb(55.288696%, 35.289001%, 12.159729%)" d="M 590.109375 580.179688 C 603.03125 517.382812 579.804688 459.515625 538.171875 450.941406 C 496.539062 442.363281 452.328125 486.316406 439.371094 549.113281 C 426.414062 611.945312 449.679688 669.808594 491.3125 678.386719 C 532.90625 686.960938 577.152344 642.976562 590.109375 580.179688 " fill-opacity="1" fill-rule="nonzero"/><g clip-path="url(#id2)"><path fill="rgb(55.288696%, 35.289001%, 12.159729%)" d="M 694.136719 726.128906 C 704.589844 675.367188 685.777344 628.582031 652.132812 621.664062 C 618.492188 614.742188 582.746094 650.265625 572.292969 701.023438 C 561.839844 751.785156 580.613281 798.570312 614.257812 805.527344 C 647.902344 812.445312 683.679688 776.886719 694.136719 726.128906 " fill-opacity="1" fill-rule="nonzero"/></g></svg>